<svg width="42" height="43" viewBox="0 0 42 43" fill="none" xmlns="http://www.w3.org/2000/svg">
<path d="M40.897 20.6792H37.5445C37 12.3917 30.3827 5.7662 22.1028 5.22119V1.86527C22.097 1.57631 21.9783 1.30114 21.7721 1.09883C21.5659 0.896522 21.2887 0.783203 21 0.783203C20.7113 0.783203 20.4341 0.896522 20.2279 1.09883C20.0217 1.30114 19.903 1.57631 19.8972 1.86527V5.22119C11.6169 5.7662 4.99995 12.3913 4.4555 20.6792H1.10304C0.810496 20.6792 0.529933 20.7956 0.323073 21.0027C0.116213 21.2097 0 21.4906 0 21.7834C0 22.0763 0.116213 22.3571 0.323073 22.5642C0.529933 22.7713 0.810496 22.8876 1.10304 22.8876H4.45506C4.99862 31.1765 11.616 37.8006 19.8972 38.3452V41.7011C19.903 41.9901 20.0217 42.2653 20.2279 42.4676C20.4341 42.6699 20.7113 42.7832 21 42.7832C21.2887 42.7832 21.5659 42.6699 21.7721 42.4676C21.9783 42.2653 22.097 41.9901 22.1028 41.7011V38.3452C30.3836 37.8006 37.0009 31.176 37.5449 22.8876H40.897C41.1895 22.8876 41.4701 22.7713 41.6769 22.5642C41.8838 22.3571 42 22.0763 42 21.7834C42 21.4906 41.8838 21.2097 41.6769 21.0027C41.4701 20.7956 41.1895 20.6792 40.897 20.6792ZM19.8967 33.9334C14.0534 33.4061 9.38867 28.7361 8.86236 22.8876H11.0693C11.5788 27.5292 15.2599 31.2141 19.8967 31.7241V33.9334ZM19.8967 11.8427C15.2599 12.3528 11.5788 16.0376 11.0693 20.6792H8.86236C9.38955 14.8316 14.0538 10.1612 19.8963 9.63348L19.8967 11.8427ZM22.1028 9.63392C27.9453 10.1612 32.6096 14.8316 33.1368 20.6792H30.9302C30.4207 16.0372 26.7397 12.3523 22.1028 11.8427V9.63392ZM22.1028 33.9334V31.7246C26.7397 31.2145 30.4207 27.5297 30.9302 22.888H33.1368C32.6104 28.7361 27.9457 33.4056 22.1028 33.9334Z" fill="white" fill-opacity="0.5"/>
</svg>
