<svg width="34" height="37" viewBox="0 0 34 37" fill="none" xmlns="http://www.w3.org/2000/svg">
<path fill-rule="evenodd" clip-rule="evenodd" d="M18.6179 7.82371C19.0875 6.20972 20.3766 3.94173 23.8627 3.94173V2.40933C19.9779 2.40933 18.1027 4.49612 17.3113 6.62972C17.493 5.11832 17.6067 3.31473 17.2532 2.52393C16.5932 1.04434 14.8527 0.37894 13.3661 1.03714C11.8818 1.69533 11.213 3.42813 11.8742 4.90772C12.1714 5.57372 13.2278 6.47612 14.2993 7.26931C8.891 4.91012 0 6.52472 0 17.1735C0 25.2314 9.25093 36.7832 13.2881 36.7832C15.12 36.7832 15.7795 35.6102 16.8423 35.6102C17.9233 35.6102 18.2715 36.7808 20.6151 36.7808C24.6553 36.7808 34 25.2686 34 17.1735C34 5.77712 23.8176 4.72772 18.6179 7.82371Z" fill="white" fill-opacity="0.5"/>
</svg>
