<svg width="29" height="34" viewBox="0 0 29 34" fill="none" xmlns="http://www.w3.org/2000/svg">
<path d="M2.09156 7.47556V30.4831C2.08183 30.8856 2.15149 31.286 2.29656 31.6614C2.44162 32.0369 2.65926 32.3802 2.93702 32.6715C3.21478 32.9629 3.54722 33.1967 3.91536 33.3595C4.2835 33.5223 4.68012 33.611 5.08255 33.6205H24.1475C24.5543 33.6179 24.9566 33.5342 25.3308 33.3744C25.705 33.2146 26.0436 32.9819 26.3269 32.6899C26.6102 32.3978 26.8324 32.0523 26.9808 31.6734C27.1291 31.2945 27.2005 30.8899 27.1907 30.4831V7.47556H2.09156ZM11.5038 28.3915H9.41215V12.7045H11.5038V28.3915ZM19.8701 28.3915H17.7785V12.7045H19.8701V28.3915Z" fill="white"/>
<path d="M27.9542 3.29169H19.8702V2.24589C19.8702 1.69117 19.6498 1.15916 19.2576 0.766912C18.8653 0.374661 18.3333 0.154297 17.7786 0.154297H11.2946C10.7769 0.206323 10.2972 0.449452 9.94909 0.836208C9.60101 1.22296 9.40958 1.72557 9.41219 2.24589V3.29169H1.0458C0.768436 3.29169 0.502433 3.40188 0.306308 3.598C0.110182 3.79413 0 4.06013 0 4.33749C0 4.61486 0.110182 4.88086 0.306308 5.07698C0.502433 5.27311 0.768436 5.38329 1.0458 5.38329H27.9542C28.2316 5.38329 28.4976 5.27311 28.6937 5.07698C28.8898 4.88086 29 4.61486 29 4.33749C29 4.06013 28.8898 3.79413 28.6937 3.598C28.4976 3.40188 28.2316 3.29169 27.9542 3.29169Z" fill="white"/>
</svg>
