<svg width="32" height="42" viewBox="0 0 32 42" fill="none" xmlns="http://www.w3.org/2000/svg">
<path d="M23.9371 1.00288C22.0416 0.514503 19.956 0.537773 18.6668 1.31437L18.4435 3.90636L16.5972 3.42528L16.649 4.70174L16.8261 9.06594C16.1478 12.1713 14.5024 14.3629 12.3976 16.2682C9.78744 18.6306 6.45255 20.4578 3.5765 22.7087C2.04261 23.9091 1.16146 25.5511 0.950945 27.3082C0.740312 29.0648 1.17022 30.9208 2.11177 32.6797C3.99473 36.1976 7.93156 39.382 13.3935 40.8047C18.5705 42.1535 23.5474 41.2868 26.9719 39.1669C28.6842 38.1069 30.0198 36.7229 30.7466 35.0994C31.4732 33.4757 31.5493 31.6038 30.7886 29.7963C29.3707 26.4264 27.3416 23.202 26.2056 19.8634C25.2728 17.1219 24.9015 14.3541 25.8824 11.2436L28.7272 6.58646L27.002 6.13679L28.067 3.76309C27.5382 2.49202 25.8327 1.49131 23.9371 1.00288ZM25.7828 7.77495L24.5532 9.78775C22.0719 10.2418 20.2561 9.67049 18.6887 8.28104L18.5923 5.90132L25.7828 7.77495ZM23.7851 11.8002C23.0841 14.9132 23.5078 17.811 24.4134 20.4727C24.8458 21.7434 25.3809 22.9689 25.9497 24.1618C24.068 23.0605 21.3628 21.9517 18.2846 21.1269C15.5281 20.3883 12.918 19.9972 10.8366 19.9324C11.8094 19.2304 12.7662 18.4877 13.6679 17.6717C15.7379 15.7981 17.5048 13.4882 18.4093 10.4523C19.9363 11.4545 21.7477 11.947 23.7851 11.8002ZM27.5422 27.3575C27.835 27.9378 28.122 28.5136 28.3922 29.0833C27.5569 29.3555 26.5607 29.4849 25.4143 29.5156C22.9375 29.5818 19.7637 29.1606 16.3751 28.2527C12.9865 27.3447 10.0273 26.1224 7.91545 24.8268C7.12267 24.3404 6.45011 23.8467 5.91011 23.3291C6.42836 22.9573 6.96582 22.5885 7.51032 22.2193C7.88407 22.5355 8.35233 22.8743 8.9053 23.2135C10.7934 24.3717 13.6232 25.5557 16.8651 26.4243C20.1071 27.293 23.1498 27.6826 25.3639 27.6236C26.2416 27.6002 26.9861 27.5009 27.5422 27.3575Z" fill="white" fill-opacity="0.5"/>
</svg>
